HIERARCHY
ROOT RootJoint
{
    OFFSET   0.000000   0.000000   0.000000
    CHANNELS 6 Xposition Yposition Zposition Xrotation Yrotation Zrotation
    JOINT lHip
    {
        OFFSET   0.100000  -0.051395   0.000000
        CHANNELS 3 Xrotation Yrotation Zrotation
        JOINT lKnee
        {
            OFFSET   0.000000  -0.410000   0.000000
            CHANNELS 3 Xrotation Yrotation Zrotation
            JOINT lAnkle
            {
                OFFSET   0.000000  -0.390000   0.000000
                CHANNELS 3 Xrotation Yrotation Zrotation
                JOINT lToeJoint
                {
                    OFFSET   0.000000  -0.050000   0.130000
                    CHANNELS 3 Xrotation Yrotation Zrotation
                    End Site
                    {
                        OFFSET   0.010000   0.002000   0.060000
                    }
                }
            }
        }
    }
    JOINT rHip
    {
        OFFSET  -0.100000  -0.051395   0.000000
        CHANNELS 3 Xrotation Yrotation Zrotation
        JOINT rKnee
        {
            OFFSET   0.000000  -0.410000   0.000000
            CHANNELS 3 Xrotation Yrotation Zrotation
            JOINT rAnkle
            {
                OFFSET   0.000000  -0.390000   0.000000
                CHANNELS 3 Xrotation Yrotation Zrotation
                JOINT rToeJoint
                {
                    OFFSET   0.000000  -0.050000   0.130000
                    CHANNELS 3 Xrotation Yrotation Zrotation
                    End Site
                    {
                        OFFSET  -0.010000   0.002000   0.060000
                    }
                }
            }
        }
    }
    JOINT pelvis_lowerback
    {
        OFFSET   0.000000   0.093605   0.000000
        CHANNELS 3 Xrotation Yrotation Zrotation
        JOINT lowerback_torso
        {
            OFFSET   0.000000   0.100000   0.000000
            CHANNELS 3 Xrotation Yrotation Zrotation
            JOINT torso_head
            {
                OFFSET   0.000000   0.282350   0.000000
                CHANNELS 3 Xrotation Yrotation Zrotation
                End Site
                {
                    OFFSET   0.000000   0.192650   0.000000
                }
            }
            JOINT lTorso_Clavicle
            {
                OFFSET   0.001000   0.157500   0.000000
                CHANNELS 3 Xrotation Yrotation Zrotation
                JOINT lShoulder
                {
                    OFFSET   0.117647   0.000000   0.000000
                    CHANNELS 3 Xrotation Yrotation Zrotation
                    JOINT lElbow
                    {
                        OFFSET   0.245000   0.000000   0.000000
                        CHANNELS 3 Xrotation Yrotation Zrotation
                        JOINT lWrist
                        {
                            OFFSET   0.240000   0.000000   0.000000
                            CHANNELS 3 Xrotation Yrotation Zrotation
                            End Site
                            {
                                OFFSET   0.116353  -0.002500   0.000000
                            }
                        }
                    }
                }
            }
            JOINT rTorso_Clavicle
            {
                OFFSET  -0.001000   0.157500   0.000000
                CHANNELS 3 Xrotation Yrotation Zrotation
                JOINT rShoulder
                {
                    OFFSET  -0.117647   0.000000   0.000000
                    CHANNELS 3 Xrotation Yrotation Zrotation
                    JOINT rElbow
                    {
                        OFFSET  -0.245000   0.000000   0.000000
                        CHANNELS 3 Xrotation Yrotation Zrotation
                        JOINT rWrist
                        {
                            OFFSET  -0.240000   0.000000   0.000000
                            CHANNELS 3 Xrotation Yrotation Zrotation
                            End Site
                            {
                                OFFSET  -0.116353  -0.002500   0.000000
                            }
                        }
                    }
                }
            }
        }
    }
}
MOTION
Frames: 10
Frame Time:   0.010000
  3.141593   3.141593   3.141593  45.850379 -33.978114  33.720104 -30.774689  31.906482  -7.827243  38.826217  20.448583  -8.008407  -1.780507   0.054461  -6.073086   8.566155 -16.310238  28.630427 -24.215655  -7.516990 -12.455879  36.380250  -6.523578  -4.359609  -8.824520 -29.467742  -0.031053  11.591212  16.215112   0.504739  -8.082696  -6.658367  -6.305964   4.355240  11.628042  -2.877004  29.634673  -9.440797 -16.737310 -13.539865 -15.049673 -21.287331  23.806751 -26.184550 -52.883701 -16.299576 -51.249306  -8.987927  24.358154  -0.022642  -3.897221 -11.601113  -5.059300  31.116992  33.129604  40.035303  38.610790  19.242022  39.954127 -23.388291  27.074170   2.522709 -24.374886
  3.141593   3.141593   3.141593 -36.102291  54.445230  33.608735 -28.184542  22.861608  10.575769  50.215839  -1.507935 -10.743241   9.696562   0.309807  -9.949264  -9.794429   5.631610   2.555974 -27.288839  -9.783957   4.336644  49.308144   0.903884 -17.638037  -3.037846   4.741149   3.545688  -3.641932  11.774841   1.563005  11.798795  -7.468934  -3.527726   5.226602  14.011896  -2.910206  10.488097  -2.038253 -14.813882  -5.179314   4.189636 -35.681492  10.077683 -36.625174 -59.701238 -23.254243 -54.370415 -12.190222  -0.869426   4.985755 -11.945796   6.566810   1.500527  31.792185  31.378308  28.123280  50.653680 -15.251346  47.181686  21.627116  16.664951   6.028342 -18.493565
  3.141593   3.141593   3.141593 -53.537350 -56.546339 -73.854170 -22.521465   4.524713  14.141857  52.893094  13.761677   6.182476 -19.516675 -14.509122 -14.059900   0.993179   9.848336  -7.726367 -14.314067 -30.863245   5.268320  28.061078   5.845265  -5.740514  13.006088 -26.663116  -5.270179   2.269148   1.900866  -6.637893   0.991038  31.025115  -2.698506  16.133104  -0.581705  12.264972  23.989978  11.610209  -6.717353  -4.209993  11.610668 -42.378936  24.367996 -46.947273 -55.619023  21.639148 -38.617562  23.329993  12.368946   0.401661 -17.145838  -1.551765 -11.552572   9.438241  35.948428  42.210880  51.446250   3.971981  41.981879 -17.097295   7.035895   3.645785 -13.251378
  3.141593   3.141593   3.141593  44.340752 -70.311791  64.217066 -35.612332  20.148775   8.776204  31.142434  -9.717735   3.723293  22.706519  16.659343  -7.937658   6.244829  -5.668596   0.171698 -30.960672  -1.197030  -8.245771  37.377963 -23.256020 -10.359607  13.540468 -11.934608   0.617488  -2.408858   7.674816   8.824657  20.327323   9.595478  -7.546096   5.567358 -14.969546  -1.637195  32.324462  12.109098 -20.452932  13.694467 -11.347358 -28.522143  26.631698 -40.379380 -51.080805  -5.496370 -53.134165   9.617567  -7.084981   8.568687   9.671709  -6.636423 -16.874617  11.857003  23.822153  36.280194  56.064220 -19.572452  29.244626   2.341028  18.598277   9.077438   5.766085
  3.141593   3.141593   3.141593 -19.417973  -0.816540  -2.989834 -33.566080  18.140431  13.652422  49.859225  15.510785   6.100086   3.191217   0.991348  -6.587245  -7.835382  -5.716285 -14.413035 -25.448304 -15.298280 -15.425779  46.790585  -7.866319   9.265911  -8.580654 -21.755877  23.847296 -14.016604   4.645888  26.958186  -0.013918   7.390142   4.368996   1.749865  -9.559303  11.158804  21.050229 -11.091985 -20.127321  -4.981631  -1.086755 -12.670799  23.229977 -35.209047 -49.762704  13.743578 -21.906886   0.299911  24.513100  25.328728 -23.251111   9.528041 -16.466371  -4.054556  32.824511  47.996004  43.231490   5.017406  27.306554 -17.667834  37.814826   5.558329 -23.053742
  3.141593   3.141593   3.141593  57.802762 -37.462240  32.957295 -10.254816  35.082940  -3.651673  42.929560  -5.118465   4.249609  -8.395826 -13.716572  -3.621466 -10.652860  -2.721926 -13.309744 -12.811683 -19.018991   0.139548  38.636597  -9.017348 -19.279960  18.553373 -10.334942   9.602476  -1.800612  -4.511655  -7.684410   7.615747   7.638043  -7.613349  11.853909   1.571800  12.591453  10.486615  20.633468  -2.289726 -17.843444  -2.672083 -35.741057  20.260922 -37.463105 -58.122836  20.553813 -35.287837  16.517145  23.401059 -10.235915  -6.980277   0.149515   0.201438  17.607700  20.108408  40.361287  60.779222  -3.972879  30.168732  -2.099050   6.300262  11.444083  -6.437718
  3.141593   3.141593   3.141593   1.199739 -71.489474 -13.970032 -33.391392  26.424577 -15.103483  49.106962 -16.106795  -0.387927   5.322463   3.820459 -19.369511   0.615459   6.572333  -5.143420 -30.581965  -0.143879 -10.528462  38.526113  -0.454559 -32.706453  21.643767 -14.534424   2.255520  -2.996006   0.178922 -16.955315  -1.036970   0.963397  18.515125   9.029381 -12.280131  29.685865  32.532755   2.223947 -10.199478  -5.453852 -12.712836 -37.684163  29.656167 -33.475298 -57.097891  -2.680100 -50.815485   2.040101  -1.604318 -12.885973  -0.113182  -6.141031 -20.350797  28.678587  15.260057  22.977810  60.562379  -7.917406  41.858568  16.099150   9.563138  12.768220  -2.083635
  3.141593   3.141593   3.141593 -24.216270 -76.062296 -40.189632 -34.208084  32.009190  14.987094  51.359641   6.117201   6.089174   0.044588  -0.088555 -10.610250  -3.466794 -11.715155 -21.465479 -32.805933 -18.499116 -12.333922  32.689157   2.189197 -14.646103  -5.417915  -9.540023  -4.307345   4.112227  -5.109384  32.085143  12.392975   1.205738 -10.446089  17.951585  19.045736  -2.518504  28.280484  12.847666  -7.937098  -8.509648  -4.944553 -37.732651  22.249092 -32.167449 -60.037312  14.832761 -45.821000  15.519824   2.930596  10.909374  22.664673  -7.712829  -2.454825  10.391418  24.901157  30.277519  51.335797   4.484272  36.403913  -7.637918  22.763643  10.773213  -5.032007
  3.141593   3.141593   3.141593  50.609032 -21.918041  29.617271 -36.488440  30.929711  18.613607  43.201360  -3.472933  19.833652  -0.158498   3.322883 -13.215190 -14.945759  -5.003706 -24.765175 -40.078841 -20.868309 -12.973059  42.974683  -4.696367 -10.419791   3.123574 -19.215742   7.124210  -0.602011   4.660675  -7.954993   5.400928  -1.595832  12.984644   5.083332 -18.109147  24.015519   1.394944  -8.834901  -5.940398   3.680932  -6.010415 -34.532733  15.156246 -44.658461 -49.364446 -11.441802 -46.039305  -4.849217  10.871795  18.620343 -12.379841  -3.375713  -2.551473  31.206126  34.944018  34.008320  48.532548 -18.502942  45.464697   8.543147  32.980212   3.002396  -9.141098
  3.141593   3.141593   3.141593  21.693738 -33.486091  26.243571 -16.434715   6.724020   8.120909  46.254781 -14.180183  10.325944   2.960131   1.117382  -4.993087  -1.230234  13.256142  -1.644548 -17.798943 -15.719219   7.069342  40.724135  -1.996145 -18.039587 -13.617580 -11.658568  -4.865533  19.884202   5.763018   1.216046  14.957082  -8.732632  -2.870370  39.908843  13.017125 -21.218601  33.357357  -8.074430  12.707473   1.548740  15.992384 -33.826319  32.863419 -33.192210 -42.386298   9.686984 -48.382350  44.563993  22.163737  12.423766   2.220595 -10.039936  -9.560672  31.908645   7.894049  43.026078  69.586747   0.270032  64.884180  -0.041080  -0.845756   2.689002  -0.131418
